<svg xmlns="http://www.w3.org/2000/svg" viewBox="0 0 1000 500" role="img" aria-label="Simplified world land map">
<!-- Natural Earth 1:110m land, public domain; equirectangular projection, coordinates rounded to 0.1px. -->
<rect width="1000" height="500" rx="18" fill="#102a32"/>
<path d="M334.5,472.3 333.7,473.7 332.9,475 327.1,474.6 320.9,474.8 317.4,473.9 317.4,473.7 315.9,472.9 322.1,473 328.1,473.3 330.2,472.2 331.6,471.2 334.5,472.3Z M57.8,470.8 52.4,471.2 48.8,470.2 47.1,469.2 47,469.1 45.2,468.3 45.2,468.3 46.9,467.3 52.1,467.7 54.9,468.6 57,469.6 57.8,470.8Z M374.6,466.8 378,468 379.2,469.7 379.5,470.9 379.6,472.3 375.3,473.2 370.8,473.9 365.6,474.5 359.8,475.1 353.2,474.9 349.5,474 350,472.8 356,472.1 358.4,471.2 360.1,470 361.3,468.9 363,467.9 364.8,466.8 364.8,466.8 366.2,466.8 370.4,466.2 374.6,466.8Z M163.3,454.2 166.9,454.6 170.2,454.1 168.6,455.1 166,455.8 162.2,455.6 159.4,454.6 159.4,454.6 160,453.7 163.3,454.2Z M151.2,454.1 155.5,455.2 153.8,455.1 150.2,454.8 146.4,454.1 146.4,454.1 148.4,453.5 151.2,454.1Z M225.1,449.8 228.1,450.2 231.1,449.9 232.8,451.4 230.6,451.2 227.2,451.3 223.8,451.2 220,451.4 217.2,450.8 215.7,449.7 215.7,449.7 217.5,449.2 221,449.6 225.1,449.8Z M309.9,447.1 310.2,448.4 309.7,449.4 308.9,450.5 305.7,450.9 302.6,451.4 298.9,451.3 300.3,450.3 297,450.6 293.9,451 291.8,450.2 291.6,449.1 294.7,448 294.7,448 296.6,447.6 299.8,447.8 300.6,446.3 300.8,445.3 300.7,443.1 302.3,441.8 304.9,441.3 306.3,442.4 307,443.4 308.2,444.7 309.1,445.8 309.9,447.1Z M337.2,428.2 336,428.8 333.9,428.4 331.6,428.6 329.7,429.3 327.7,430 326.4,430.8 326,431.9 326.1,432.9 327.4,433.9 325.5,434.5 322.9,434.7 321.4,435.7 319.8,436.5 318,437.7 317.6,438.8 318.6,439.9 320,440.8 322.3,441.4 324.5,442.3 325.6,443.4 326.2,444.4 327,445.5 328.3,446.4 329.1,447.5 329.5,450 330.3,451.1 330.5,452.2 331.4,453.2 331,454.7 329.5,455.9 327.9,456.8 324.2,457.2 322.9,458.1 321.2,459.1 317.1,460.1 313.4,460.5 309.9,461.1 306.1,461.7 303.9,462.9 299.4,463 294.5,462.9 290.1,463.1 285.4,463.1 286.3,464.2 290.6,464.7 293.7,465.4 295.4,466.4 292.3,467.3 287.5,467 283.5,467.7 283.4,468.9 283.3,469.9 286.5,470.9 287.1,471.9 290.7,472.9 296.5,473.4 301.5,474.1 305.5,475 310.6,475.9 317.5,476.3 324.3,477.1 329,477.9 334.2,478.8 336.9,480.1 338.3,481.2 341.6,480.2 346.2,479.4 351.1,478.5 356.8,477.8 361.8,477 368.7,477 375.5,477.4 381.1,478 382.9,476.8 386.7,476 393.8,475.9 399.3,475.3 404.5,474.7 410.2,474.4 416.4,473.9 420.7,473.2 418.7,472.2 417.5,471.2 417.5,470.2 412.2,470.3 406.4,470.7 401,470.7 400.2,469.7 400.6,467.6 401.9,467 405.8,466.4 410.5,465.7 413.9,464.9 417.3,464.1 419.8,463 423.6,462.5 427.3,462.1 429.2,461.9 433.5,461.8 437.6,461.4 441,460.9 444.4,460.2 447.5,459.6 451.3,458.7 453.8,457.8 456.4,456.9 457.2,455.9 454.3,455.2 455.2,454.1 457.1,453.2 460,452.6 463,452 465.9,451.1 468,450 469.4,448.7 471.4,448 474.7,448.1 476.1,449 479.4,449.2 479.5,448.1 480.9,447 483.9,447.3 484.6,448.3 487.9,448.5 491.5,448 495,447.7 498.2,447.9 499.4,449 502.4,448.1 505.2,447.6 508.4,447.2 511.5,446.8 514.3,446.2 517.4,445.7 519.8,445.1 521.5,444.1 523.6,444.9 526.5,444.5 528.5,445.8 530,446.8 533.2,446.2 534.5,445.1 537.3,444.4 540.9,444.5 542,445.6 544.3,444.5 547.3,444.2 550.6,444.1 553.5,444.1 556.6,444.5 559.6,444.6 560.9,445.6 562.7,446.4 565.7,445.9 569,445.8 572.2,445.8 575.3,445.7 578,445.3 581,445 583.4,444.3 586,443.8 588.9,443.5 591,442.7 592.5,441.2 594.1,440.3 597,440.7 598.1,441.7 600.5,442.4 603.3,442.1 605.3,443.1 607.4,443.8 610.2,443.2 611.2,442 613.7,441.5 616.6,440.6 619.3,440.2 622.5,439.6 624.7,439 627,438.4 629.2,437.8 631.8,438.1 634.3,437.1 636.1,436.4 638.7,436.4 641,435.8 641.5,434.8 643.9,434 646.2,433.5 648.9,433 651.5,432.8 653.9,433 656.5,433.3 658.8,434 659,435.2 661.5,436.1 663.2,436.9 666.5,437.2 668.3,438 670.6,438.8 673.3,438.9 675.5,438.4 677.9,437.2 680.5,437.8 683.3,438.2 685.9,438.5 688.6,438.7 691.4,438.7 693.6,441.6 693.5,442.3 693.2,443.6 690.5,444.3 688.4,445.3 688.7,446.4 691.9,446.3 691.5,447.4 690.1,448.4 688.7,449.6 690.9,450.5 694.1,450.7 697.3,450.2 698.8,449.2 699.7,448.1 701.3,447.3 703,446.4 703.7,445.5 705.2,444.1 706.9,443.8 710.1,443.7 712.9,443.4 715.7,443 717,441.9 717.9,440.8 719.8,439.8 722.5,439.1 724.8,438.5 726.3,437.6 727.9,437.1 729.9,436.7 732.7,437 735.2,436.7 737.9,436.4 741,436.5 743,435.8 744.4,433.9 745.4,434.7 746.7,436 749.1,436.5 751.8,436.7 754.4,436.4 757.2,436.6 759.9,436.7 761.6,436.4 763.9,436.6 766.1,437.2 768.6,436.8 771.6,436.8 774.1,436.4 777,436.8 778.8,435.9 780.3,435 782.2,434.2 785.6,432.1 787.4,432.5 789.6,433.3 791.4,434.2 794.9,435.9 797.7,436 800.2,436 803.2,435.7 806.2,435.3 808.5,434.5 810.4,433.7 813.5,433.6 815.6,433 817.7,433.5 819.2,434.4 821.1,435.3 824.2,435.2 826.1,435.9 829.4,436.6 832.9,436.9 835.8,436.6 837.9,435.8 839.8,434.9 842.3,434.7 844.8,435.1 847.7,435.3 850.3,434.9 852.8,434.9 855.2,435.2 857.8,435.4 860.3,435 863.3,434.5 866.1,434.4 869.3,434.4 871.8,434.1 874.3,433.9 875.1,432.6 875.2,431.4 876.9,432.2 877.4,433.4 878.4,434.6 879.5,435.5 881.8,436 885,435.8 888.6,435.8 891.1,435.6 894.8,435.6 897.4,435.5 901,435.7 904.1,435.9 906.1,436.7 905.6,437.8 907.4,438.6 910.3,439.3 913.4,440 917,440.4 920.8,440.9 923.6,441.3 926.8,441.4 928.6,440.4 931,441.2 933.1,442.1 935.6,442.7 939,443 942.2,443.3 943.5,444.4 946.7,445.1 948.8,446.1 951.9,446.5 955.1,446.4 958.1,446.6 961.4,446.5 964.7,446.8 967.8,447.1 970.7,447.8 973.6,448.3 975.6,449.2 975.2,450.2 973.8,451.2 972.5,452.5 971.5,453.5 970.2,454.6 966.6,455 965,456 961.4,456.6 960.1,457.7 958.2,458.7 956.2,459.6 955.1,460.8 954.4,461.8 954.1,463 954.1,464.1 955.7,465.2 956.3,466.2 957.6,467.2 962.8,467.6 963.9,468.8 958.9,469.2 954.6,469.8 949.4,469.9 947,471.5 946.5,472.8 945.3,473.8 943.9,474.8 947.6,475.8 949,476.9 951.4,478 954.7,478.9 958.6,479.7 962.8,480.6 969.2,481.5 970.6,482.8 978.6,483.4 979.1,483.7 981.2,484.5 988.8,483.8 995.2,484.6 1000,485.3 1000,500 0,500 0,485.3 0.2,485.3 2.6,483.7 7.6,484.6 7.9,484.5 8.7,484.3 9.7,484 10.5,483.7 10.9,483.6 11.3,483.6 11.6,483.7 15.6,484.8 19.1,483.7 19.8,483.5 27.9,483 30.6,483.7 31.9,484 36,484.9 43.9,485.6 50.2,486.5 60.9,487.1 68.9,486.4 80.7,486.9 87.4,487.8 94.8,487 102.5,486.2 103.1,484.9 92.1,484.8 83.2,484.2 80.8,483.1 73.4,482.5 73.9,481.2 74.9,480.1 75.9,479 75.4,477.9 70.8,477.1 68.6,476.2 64.3,475.3 71.1,475.4 77.5,475 81.5,475.9 86.5,475.1 91.1,474.1 93.3,473.2 92.3,472 88.7,471.3 84.6,470.4 78.9,470.3 73.9,469.9 68.5,469.6 66.7,468.6 63.1,467.7 61,466.7 60.1,463.6 61.5,463.9 64,464.7 68.5,464.5 72.9,464.1 75.2,465.3 79.6,465 83.3,464.4 86.8,463.6 90,462.7 94.2,462.4 94,461.4 93.1,460.4 93.9,459.4 97.5,458.9 99.1,459.8 103.3,459.3 106.6,458.6 110.5,458.5 114.3,458.2 118,457.6 121,457 124.4,456.4 126.6,456.6 128.5,456.8 132.6,456.4 136.3,456.9 140.1,456.8 143.8,456.5 147.5,456.7 151.7,457 155.5,456.9 159.5,456.9 163.7,457 167.5,456.9 170.3,456.1 173.7,455.6 177.2,456.2 180.5,455.7 183.5,454.8 185.3,455.6 186.3,456.6 188.1,457.5 190.9,456.7 194.3,457.8 198,458.1 201.2,458.8 205.1,458.7 208.7,458.2 212.9,458.3 216.6,458.7 220.4,459.2 221.9,458 220.1,457 218.7,456.1 215.2,455.9 213.6,454.8 213,453.8 212,451.7 214.1,452.1 217.8,452.3 221.4,452.1 224.6,452.5 227.4,453.3 228.6,454.3 232.4,454.5 236,454.1 239.8,453.6 243.2,453.2 246.1,453.9 249.8,453.7 252.1,451.6 254.4,452.8 257.6,453.3 261.1,453 263.4,454.1 267,454.2 270.4,454.5 273.7,455.1 275.9,454.1 277,453.1 279.7,454.2 283.5,453.9 286.4,454.5 288.3,455.5 292,455.2 294.9,454.6 297.7,453.9 301.1,453.5 305,453.2 308.5,452.8 311.2,452.2 312.9,451.3 313.5,450.1 313.2,449 312.3,447.9 311.3,446.8 310.5,445.7 309.8,444.7 309.6,443.7 309.9,442.6 311.2,441.5 312.3,440.4 312.7,439.3 312.2,438.1 311.8,437 313.2,435.8 314.7,435 316.5,433.9 318.4,433 320.6,432.2 321.7,431 323.3,430.3 325,429.6 327.7,429.4 329.4,428.5 331.4,428 333.6,427.7 335.7,426.9 337.2,426.1 339.4,425.8 341,426.5 340,427.4 337.2,428.2Z M311.8,399.6 315.4,401.3 319.3,401.9 318.1,403.3 315.4,403.5 314,402.5 313.1,403.6 310.7,404.5 307.7,404.2 305.7,403.3 302.8,402.9 299.3,401.4 296.4,399.9 292.6,396.8 294.9,397.4 298.8,399.2 302.5,400.2 303.9,398.9 304.8,397 307.4,395.9 309.3,396.2 309.3,396.2 310.4,397.5 311.8,399.6Z M337.4,391.9 339.6,393.2 338.8,394.2 335,395 333.8,394 331.4,395.3 330,394 333.3,392.4 335.7,393.1 337.4,391.9Z M695.2,388.1 691,388.3 690.9,386.8 691.3,385.6 691.5,385.1 693.3,385.9 695.9,386.3 696,386.8 695.2,388.1Z M903.9,363.3 906.6,364.3 908.1,363.9 910.2,363.4 911.9,363.5 912.1,366.8 911.2,367.8 910.9,370 909.9,369.3 908,371.2 907.4,371.1 905.7,371 904,368.6 903.6,366.8 902,364.3 902.1,363.1 903.9,363.3Z M980.6,363.7 981.2,364.8 983.2,363.7 984,364.9 984,366 983,367.3 981.2,369.4 979.8,370.5 980.8,371.8 978.6,371.8 976.3,372.9 975.5,374.7 973.9,377.5 971.8,378.8 970.4,379.6 967.8,379.5 966,378.6 963,378.4 962.5,377.4 964,375.3 967.5,372.6 969.3,372 971.3,371 973.7,369.5 975.3,368.1 976.6,366 977.6,365.3 978,363.8 980,362.5 980.6,363.7Z M985,350.4 987,353.4 987.1,351.5 988.4,352.2 988.8,354.3 991,355.2 992.9,355.4 994.5,354.4 995.9,354.7 995.2,357.2 994.4,358.8 992.2,358.7 991.5,359.6 991.8,360.8 991.3,361.3 990.3,362.8 988.9,364.7 986.8,365.8 986.3,365.1 985.1,364.7 986.7,362.4 985.8,360.9 982.8,359.7 982.9,358.7 984.9,357.8 985.4,355.6 985.3,353.8 984.1,352 984.2,351.5 982.9,350.3 980.7,347.9 979.5,345.9 980.6,345.7 982.1,347.2 984.2,348 985,350.4Z M964.2,311.6 963.2,312.2 961.6,311.5 959.7,310.2 957.9,308.7 956,306.8 955.6,305.8 956.8,305.9 958.4,306.8 959.6,307.8 960.5,308.6 962.8,310.3 964.2,311.6Z M995.5,298.2 996.4,299 996,300.4 994.3,300.8 992.7,300.5 992.5,299.2 993.5,298.3 994.8,298.6 995.5,298.2Z M998.2,296.7 996.5,297.3 996.1,296.2 997.5,295.6 998.4,295.5 1000,294.6 1000,296 998.2,296.7Z M0.2,295.8 0,296 0,294.6 0.6,294.5 0.2,295.8Z M966.2,295.7 965.3,296.1 964.4,294.9 964.5,294.1 966.2,295.7Z M964.2,291.5 964.6,293.7 963.9,293.4 963.3,293.5 962.9,292.8 962.9,290.6 964.2,291.5Z M639,287.7 639.5,291 640.2,292.3 639.9,293.6 639.4,294.4 638.5,292.8 638,293.6 638.5,295.7 638.3,296.9 637.5,297.5 637.3,299.9 636.2,303.1 634.9,306.9 633.1,312.2 632.1,316.1 630.8,319.3 628.6,319.9 626.1,321.1 624.5,320.4 622.3,319.4 621.6,317.9 621.4,315.5 620.4,313.3 620.2,311.3 620.6,309.3 621.9,308.8 621.9,307.9 623.3,305.8 623.5,304 622.9,302.7 622.3,300.9 622.1,298.4 623.1,296.8 623.5,295 624.8,294.9 626.4,294.4 627.4,293.9 628.6,293.8 630.2,292.3 632.5,290.5 633.3,289.1 633,288 634.1,288.3 635.7,286.4 635.7,284.7 636.7,283.4 637.6,284.6 638.4,285.8 639,287.7Z M898.8,288.2 899.8,290.4 901.6,289.4 902.5,290.5 903.8,291.6 903.5,292.9 904.1,295.2 904.5,296.6 905.2,297 906,299.3 905.7,300.8 906.6,302.7 909.6,304.1 911.6,305.4 913.5,306.6 913.1,307.3 914.7,309.1 915.8,312.1 916.9,311.5 918,312.7 918.7,312.2 919.2,315.2 921.1,316.9 922.4,317.9 924.6,320.2 925.4,322.4 925.4,324 925.3,325.7 926.6,328.1 926.4,330.5 925.9,331.8 925.2,334.3 925.2,335.9 924.7,337.9 923.5,340.4 921.4,341.8 920.4,343.9 919.5,345.3 918.7,347.7 917.6,349.1 916.9,351.2 916.5,353.1 916.7,354 915.1,354.9 912,355 909.4,356.2 908.1,357.2 906.4,358.4 904.1,357.2 902.4,356.7 902.9,355.3 901.3,355.8 898.9,357.8 896.5,357.1 894.9,356.6 893.4,356.4 890.7,355.6 888.9,353.9 888.4,351.8 887.7,350.4 886.3,349.3 883.7,348.9 884.6,347.6 883.9,345.5 882.6,347.4 880.1,347.9 881.5,346.4 882,344.8 883,343.4 882.8,341.4 880.5,343.8 878.8,344.7 877.7,346.9 875.6,345.8 875.7,344.3 873.9,342.3 872.5,341.2 873,340.6 869.4,338.9 867.5,338.8 864.8,337.5 859.8,337.8 856.2,338.7 853.1,339.7 850.4,339.5 847.5,340.9 845.1,341.6 844.5,343 843.5,344.1 841.1,344.2 839.4,344.5 836.9,343.9 834.9,344.3 833,344.4 831.4,345.9 830.6,345.7 829.2,346.5 827.8,347.4 825.8,347.3 824,347.3 821,345.5 819.5,345 819.6,343.4 821,343 821.4,342.4 821.3,341.4 821.7,339.5 821.4,337.8 819.9,335 819.4,333.4 819.6,331.8 818.4,330 818.4,329.2 817.1,328.1 816.8,325.9 815.2,323.7 814.8,322.5 816.1,323.7 815.1,321.2 816.5,322 817.3,323.1 817.3,321.6 815.9,319.4 815.6,318.6 815,317.7 815.3,316.1 815.9,315.4 816.2,314.1 815.9,312.4 817.1,310.4 817.3,312.5 818.5,310.6 820.7,309.7 822.1,308.5 824.2,307.5 825.5,307.3 826.2,307.6 828.4,306.6 830.1,306.3 830.5,305.7 831.3,305.4 832.8,305.5 835.7,304.7 837.2,303.4 837.9,302 839.6,300.5 839.7,299.4 839.8,297.9 841.7,295.6 842.9,298 844.1,297.4 843.1,296.1 843.9,294.8 845.2,295.4 845.5,293.2 847,291.9 847.7,290.8 849.1,290.3 849.1,289.5 850.3,289.9 850.4,289.2 851.6,288.8 853,288.4 855,289.7 856.6,291.3 858.3,291.3 860.1,291.6 859.5,290.1 860.8,287.8 862.1,287.1 861.6,286.4 862.8,284.8 864.5,283.8 865.9,284.2 868.3,283.7 868.2,282.2 866.2,281.3 867.7,280.9 869.5,281.6 871,282.7 873.3,283.5 874.1,283.2 875.8,284 877.5,283.2 878.5,283.5 879.1,282.9 880.4,284.3 879.7,285.8 878.6,286.9 877.7,287 878,288.1 877.2,289.5 876.2,290.9 876.4,291.7 878.6,293.2 880.7,294.1 882.2,295 884.2,296.7 885,296.7 886.4,297.4 886.8,298.3 889.5,299.2 891.3,298.2 891.9,296.8 892.4,295.5 892.8,294 893.6,291.8 893.2,290.4 893.4,289.6 893.1,288.1 893.5,286 894,285.4 893.6,284.5 894.2,283 894.8,281.5 894.8,280.7 895.9,279.6 896.7,281 896.9,282.7 897.5,283.1 897.7,284.2 898.7,285.7 898.9,287.2 898.8,288.2Z M950.3,279.1 951.1,280.1 949.2,280.1 948.1,278.3 949.8,279 950.3,279.1Z M835.3,278.4 834.2,278.5 830.5,276.5 833.1,276 834.5,276.8 835.5,277.7 835.3,278.4Z M946.8,277.4 945.7,277.5 944,277.2 943.4,276.8 943.6,275.7 945.5,276.1 946.4,276.7 946.8,277.4Z M949.1,276.7 948.7,277.2 946.6,274.8 946.1,273.1 947,273.1 948,275.3 949.1,276.7Z M845.7,278.2 843.3,278.8 842.9,278.4 843.2,277.5 844.4,275.8 847.1,274.7 847.5,274 849.9,273.4 851.8,273.3 852.7,273 853.7,273.3 852.7,274.1 849.8,275.3 847.5,276.1 845.7,278.2Z M827.5,272.5 828.5,273.2 830.2,273 830.9,274.2 827.7,274.7 825.8,275.1 824.3,275.1 825.2,273.5 826.8,273.5 827.5,272.5Z M841.4,272.5 841,274 836.8,274.8 833.1,274.5 833.1,273.5 835.3,272.9 837.1,273.7 838.9,273.5 841.4,272.5Z M944.1,273.2 944.2,273.7 942,272.5 940.5,271.5 939.5,270.6 939.9,270.3 941.2,271 943.4,272.3 944.1,273.2Z M937.6,270.4 937.1,270.6 935.8,269.9 934.7,268.8 934.8,268.3 936.5,269.5 937.6,270.4Z M801.7,268.8 807.1,269.1 807.7,268 812.8,269.3 813.8,271.1 818,271.6 821.4,273.3 818.2,274.3 815.2,273.2 812.7,273.3 809.8,273.1 807.2,272.6 804,271.5 801.9,271.2 800.8,271.6 795.7,270.4 795.2,269.2 792.7,269 794.6,266.4 798,266.5 800.2,267.6 801.4,267.8 801.7,268.8Z M874.2,267.3 872.8,269.2 872.5,267.1 873,266.1 873.6,265.1 874.2,265.9 874.2,267.3Z M933,268.9 932.2,269.2 931,268.2 929.8,266.4 929.2,264.3 929.6,264 929.9,264.8 930.7,265.5 932.1,267.2 933.4,268.2 933,268.9Z M922.2,265.2 920.7,265.4 920.3,266.2 918.8,266.9 917.3,267.5 915.9,267.5 913.6,266.7 912,266 912.2,265.1 914.7,265.5 916.2,265.3 916.7,264 917.1,263.9 917.3,265.4 918.9,265.2 919.7,264.2 921.2,263.2 920.9,261.6 922.6,261.5 923.2,262 923.1,263.5 922.2,265.2Z M853.5,259.6 852.4,260.5 850.5,260 850,258.8 852.8,258.7 853.5,259.6Z M862.4,258.6 863.4,260.7 861.1,259.6 858.8,259.3 857.2,259.5 855.3,259.4 855.9,257.9 859.4,257.8 862.4,258.6Z M925.4,262.5 924.5,263.2 924,261.6 923.4,260.5 922.1,259.6 920.5,258.4 918.5,257.6 919.3,256.9 920.8,257.7 921.7,258.3 922.9,259 924,260.2 925.1,261.1 925.4,262.5Z M872.6,253.2 873.4,257.7 876.3,259.4 878.6,256.4 881.8,254.7 884.2,254.7 886.6,255.7 888.7,256.7 891.7,257.2 896.5,259.1 901.6,260.7 903.5,262.1 905.1,263.5 905.5,265.2 910.1,266.9 910.8,268.4 908.3,268.7 908.9,270.5 911.3,272.3 913.2,275.3 914.7,275.2 914.6,276.4 916.8,276.9 915.9,277.4 918.9,278.6 918.6,279.4 916.7,279.6 916.1,278.9 913.7,278.6 910.9,278.1 908.7,276.4 907.1,274.8 905.7,272.4 902.1,271.2 899.7,272 898,272.9 898.4,275 896.2,275.9 894.6,275.4 891.8,275.3 889.3,273 886.5,272.5 885.8,273.3 882.3,273.4 883.4,271.1 885.2,270.3 884.5,267.3 883.1,265 877.7,262.6 875.5,262.4 871.3,259.8 870.5,261.2 869.4,261.4 868.8,260.4 868.8,259.2 866.6,257.8 869.6,256.8 871.6,256.9 871.4,256.2 867.3,256.1 866.2,254.5 863.7,254 862.6,252.6 866.3,251.9 867.7,251 872.2,252.2 872.6,253.2Z M847.9,246.1 845.7,248.8 843.6,249.3 840.9,248.8 836.3,248.9 833.8,249.3 833.4,251.4 835.9,253.9 837.4,252.7 842.6,251.7 842.4,253 841.2,252.6 840,254.2 837.5,255.3 840.2,258.9 839.6,259.8 842.1,263 842.1,264.8 840.6,265.7 839.5,264.7 840.9,262.4 838.2,263.5 837.5,262.7 837.8,261.6 835.8,260 836,257.3 834.2,258.1 834.4,261.4 834.5,265.4 832.8,265.8 831.6,264.9 832.4,262.4 831.9,259.7 830.8,259.7 829.9,257.8 831.1,256 831.5,253.8 832.8,249.6 833.4,248.4 835.8,246.4 838,247.2 841.5,247.6 844.7,247.5 847.4,245.4 847.9,246.1Z M857.5,246.9 857.3,249.3 855.9,249 855.5,250.7 856.6,252.2 855.8,252.5 854.7,250.7 853.9,247.2 854.4,245 855.4,244 855.6,245.5 857.2,245.7 857.5,246.9Z M793.9,266.3 790.9,266.3 788.5,264 785,261.7 783.8,260 781.7,257.8 780.3,255.7 778.2,251.8 775.7,249.5 774.9,247.1 773.9,244.9 771.4,243.2 769.9,240.8 767.8,239.3 764.9,236.2 764.7,234.8 766.5,234.9 770.8,235.4 773.2,238.1 775.4,240 776.9,241.2 779.6,244.2 782.4,244.2 784.7,246.1 786.3,248.4 788.4,249.7 787.3,252 788.9,252.9 789.9,253 790.4,255 791.4,256.5 793.4,256.7 794.7,258.5 794,262 793.9,266.3Z M827.4,244.9 830.5,247.5 827.3,247.8 826.3,249.7 826.4,252.2 823.8,254.1 823.7,256.9 822.6,261.1 822.2,260.2 819.1,261.4 818,259.7 816,259.6 814.6,258.7 811.3,259.7 810.3,258.3 808.5,258.5 806.2,258.2 805.8,254.4 804.4,253.7 803,251.3 802.6,248.8 803,246.3 804.6,244.4 806.7,245.4 808.8,244.9 809.4,242.5 810.5,242 813.9,241.4 815.9,239.2 817.2,237.4 818.3,236.4 820.7,234.9 822.8,232.9 824.2,230.8 825.4,230.8 826.8,232.2 826.9,233.4 828.7,234.1 831.1,235 830.9,236.1 829,236.2 829.5,237.6 827.5,238.5 825.9,241 827.9,243.6 827.4,244.9Z M851,226.6 851.3,228.5 851.5,230 850.5,232.6 849.5,229.7 848.2,231.1 849.1,233.2 848.3,234.5 845.1,232.9 844.3,230.9 845.1,229.6 843.4,228.2 842.5,229.4 841.2,229.3 839.1,230.8 838.7,230 839.8,227.7 841.5,226.9 843,225.9 844,227.1 846.1,226.3 846.6,225.1 848.5,225 848.4,222.9 850.6,224.2 850.9,225.6 851,226.6Z M725.6,232.8 723.2,233.4 721.9,231.2 721.4,227.2 722.6,222.7 724.6,224.3 725.8,226.2 727.2,229.1 726.8,232 725.6,232.8Z M330.7,221.9 328.4,222.2 327.9,222 328.7,221.2 328.7,220.1 330.3,219.8 330.8,219.8 330.7,221.9Z M844.4,221.4 843.4,222.4 842.5,224.1 841.7,224.9 839.9,223 840.5,222.3 841.2,221.5 841.5,219.8 843.1,219.6 842.6,221.5 844.7,218.8 844.4,221.4Z M829.2,224.1 825.5,226.8 826.8,224.8 828.9,223.1 830.5,221.2 832,218.4 832.5,220.7 830.6,222.2 829.2,224.1Z M838.6,217 840.2,217.8 842,217.8 841.9,219 840.7,220.2 838.9,221 838.8,219.7 839,218.3 838.6,217Z M848.6,216.2 849.4,219.3 847.3,218.6 847.3,219.5 848,221.2 846.7,221.8 846.6,219.9 845.7,219.8 845.3,218.1 846.9,218.3 846.9,217.2 845.2,215.1 847.9,215.2 848.6,216.2Z M837.6,213.7 836.8,216.1 835.6,214.7 834.2,212.6 836.6,212.7 837.6,213.7Z M837,198.6 838.7,199.4 839.6,198.7 839.8,199.4 839.4,200.5 840.3,202.5 839.6,204.8 838,205.7 837.5,208 838.1,210.2 839.6,210.5 840.8,210.2 844.3,211.7 844,213.2 844.9,213.9 844.7,215.2 842.5,213.8 841.5,212.4 840.8,213.4 839,211.7 836.5,212.1 835.1,211.5 835.2,210.4 836.1,209.7 835.3,209 834.9,210 833.5,208.4 833.1,207.2 833,204.5 834.1,205.5 834.4,201.1 835.3,198.6 837,198.6Z M317.8,199.4 317.1,200.1 315,200.1 313.4,200.1 313.2,199 313.6,198.6 315.9,198.6 317.3,198.8 317.8,199.4Z M286.4,200.4 285.5,200.8 284,200.4 282.4,199.4 282.7,198.7 283.9,198.5 284.5,198.6 286.4,198.9 287.9,199.6 288.3,200.3 286.4,200.4Z M298.4,194.8 300.8,195.2 301.1,194.8 303.3,194.8 305,195.5 305.7,195.4 306.2,196.4 307.7,196.4 307.6,197.2 308.9,197.3 310.2,198.3 309.2,199.4 307.9,198.8 306.6,198.9 305.7,198.8 305.2,199.3 304.1,199.5 303.7,198.8 302.8,199.2 301.7,201.1 301,200.7 300.8,199.9 299,199.4 297.7,199.6 296,199.4 294.7,199.9 293.2,199 293.4,198.2 296,198.5 298.1,198.8 299.1,198.1 297.8,196.9 297.8,195.9 296.1,195.4 296.7,194.7 298.4,194.8Z M806.5,198.1 804.1,199.5 801.8,198.6 801.7,196.2 803.1,194.9 806.1,194.2 807.7,194.2 808.4,195.3 807.1,196.5 806.5,198.1Z M67.9,197 67.5,197.5 66.8,197.1 66.9,196.3 66.5,195.3 66.6,195 67.1,194.5 66.9,194 67.1,193.7 67.3,193.8 68.3,194.2 68.8,194.5 69.3,194.8 70,195.8 69.9,196 68.8,196.6 67.9,197Z M66.4,192.7 65.5,192.9 65,192.3 64.7,192 64.7,191.9 65,191.6 66,191.9 66.7,192.3 66.4,192.7Z M64.6,191.2 64.5,191.5 63,191.4 63.2,191.1 64.6,191.2Z M62.1,190.8 61.9,190.9 61.7,190.9 60.8,190.8 60.4,190.2 60.3,190.1 61,189.7 61.3,189.9 62.1,190.8Z M57.4,188.9 57,189.2 56.1,188.7 56.3,188.5 56.7,188.2 57.3,188.3 57.4,188.9Z M278.7,186.8 279.8,187.8 282.4,187.5 283.4,188.1 285.7,189.8 287.4,191.1 288.3,191.1 290,191.6 289.8,192.4 291.9,192.5 293.9,193.7 293.6,194.3 291.8,194.7 289.9,194.8 288,194.6 284,194.8 285.9,193.3 284.7,192.6 283,192.4 282,191.6 281.3,190 279.8,190.1 277.2,189.4 276.3,188.8 272.7,188.4 271.8,187.8 272.8,187.1 270.1,187 268.1,188.4 266.9,188.5 266.5,189.1 265.1,189.4 264,189.2 265.4,188.3 266,187.3 267.3,186.7 268.7,186.2 270.8,185.9 271.5,185.6 273.9,185.8 276.1,185.8 278.7,186.8Z M284.6,184 283.9,184.1 283.2,182.5 282.2,181.7 282.8,180 283.6,180.1 284.6,182.4 284.6,184Z M836.6,186.7 835.4,189 833.9,186.6 833.6,184.6 835.3,181.8 837.5,179.7 838.8,180.6 838.3,182.2 836.6,186.7Z M283.8,176.2 280.8,176.6 280.6,175.6 281.9,175.4 283.8,175.4 283.8,176.2Z M286.1,176.1 285.6,178.1 285.1,177.8 285.2,176.3 283.9,175.2 283.9,174.9 286.1,176.1Z M874,155.1 874.4,156.1 872.8,157.8 871.6,156.9 870.2,157.5 869.5,159.2 867.7,158.4 867.7,157 869.2,155.4 870.8,155.7 872,154.5 874,155.1Z M596,150.9 594.2,152.1 594.4,152.6 594.5,152.8 591.6,154 590.3,153.6 589.6,152.5 590.9,152.4 591.1,152.4 591.5,151.7 593.5,151.7 596,150.9Z M565.8,150.8 567.4,151.8 569.5,151.6 571.6,151.8 571.5,152.3 573,151.9 572.7,152.8 568.7,153 568.7,152.5 565.3,152 565.8,150.8Z M543.1,143.8 542.1,146 542.5,146.8 541.9,148.3 539.8,147.2 538.4,146.9 534.5,145.5 534.9,144.1 538.2,144.3 541,144 543.1,143.8Z M525.6,135.5 527.2,137.5 526.9,141.2 525.6,141 524.5,141.9 523.4,141.2 523.3,137.8 522.7,136.2 524.2,136.4 525.6,135.5Z M891.6,146.8 890.6,149 891,150.4 889.6,152.4 886,153.7 881.2,153.9 877.2,157 875.3,156 875.2,153.9 870.4,154.5 867.1,155.8 863.9,155.9 866.7,157.9 864.8,162.6 863,163.8 861.7,162.7 862.4,160.2 860.6,159.4 859.5,157.5 862.1,156.7 863.6,154.9 866.3,153.5 868.4,151.6 873.9,150.7 876.9,151.3 879.8,146.4 881.6,147.7 885.7,144.9 887.3,143.8 889,140.4 888.6,137.3 889.7,135.6 892.7,135.1 894.2,138.9 894.1,141.2 891.6,144 891.6,146.8Z M526.6,132.9 525.6,135.1 524.4,134.5 523.7,132.6 524.3,131.6 526.1,130.5 526.6,132.9Z M899.8,127.3 901.7,127.9 903.7,126.7 904.3,129.8 900.2,130.6 897.7,133.3 893.4,131.4 891.9,134.5 888.8,134.5 888.4,131.8 889.8,129.6 892.7,129.5 893.5,125.6 894.4,123.5 897.6,126.4 899.8,127.3Z M323.2,120.7 325.2,121.1 327.7,121 326.4,122.1 325.3,122.3 321.8,121.1 321.1,120.2 322.2,119.3 323.2,120.7Z M328.3,113.6 327,113.6 323.4,112.8 320.8,111.5 321.7,111.2 325.4,111.9 328.2,113.1 328.3,113.6Z M156.9,115.2 155.5,115.6 151,114.4 150.1,113.4 147.6,112.4 147.1,111.6 144.3,111.1 143.2,109.6 143.4,109 146.4,109.6 148.1,110 150.7,110.3 151.6,111.2 153,112.6 155.8,113.7 156.9,115.2Z M344.1,109.2 342.2,111.6 344,110.7 345.9,111.3 344.9,112.3 347.4,113 348.7,112.3 351.5,113.2 350.6,115.2 352.5,114.8 352.9,116.2 353.8,118 352.6,120.4 351.3,120.5 349.5,120 350.1,117.7 349.3,117.4 346.1,119.8 344.5,119.7 346.4,118.4 343.7,117.7 340.8,117.9 335.4,117.8 334.9,116.9 336.7,116 335.5,115.2 337.8,113.5 340.7,109.1 342.4,107.5 344.8,106.6 346.1,106.7 345.6,107.5 344.1,109.2Z M131.4,99.9 131.4,99.9 131.4,99.9 131.4,99.9 134,99.7 133.2,102.8 135.6,105.1 134.5,105 132.8,103.8 131.8,102.5 130.4,101.6 129.9,100.4 130.1,99.5 131.4,99.9Z M899,109 901.8,114 897.7,113 896,117.1 898.7,119.9 898.6,121.8 896.5,120.2 894.7,122.3 894.2,120 894.5,117.3 894.2,114.3 894.8,112.2 894.9,108.5 893.3,105.7 893.6,101.9 896.1,100.7 895,99.4 896.3,99 897,100.8 897.9,103.5 897.9,106.2 899,109Z M481.1,104.8 476.2,106.5 472.3,106.1 474.5,103.2 473.1,100.3 476.9,98.2 479,96.9 481.3,96.7 484.3,98.5 482.8,100.4 483.2,102.4 481.1,104.8Z M535.3,95.5 533.6,97.8 530.7,96.2 530.3,95.1 534.4,94.1 535.3,95.5Z M75,91.3 72.2,92.4 70.8,91.7 70.4,90.4 72.9,89.4 74.4,89 76.2,89.2 77.4,90 75,91.3Z M491.7,87.1 488.7,90.1 491.5,89.7 494.6,89.8 493.8,92 491.3,94.5 494.2,94.7 496.9,98.3 498.8,98.7 500.5,101.9 501.3,103 504.7,103.5 504.3,105.3 502.9,106.1 504,107.5 501.5,109 497.8,109 493.1,109.7 491.8,109.2 490,110.5 487.4,110.2 485.4,111.2 484,110.7 488,107.7 490.5,107.1 486.2,106.7 485.4,105.6 488.3,104.7 486.7,103.2 487.3,101.4 491.4,101.7 491.8,100 489.9,98.3 486.5,97.8 485.9,97.1 486.9,95.8 486,95 484.5,96.4 484.3,93.7 482.9,92.3 483.9,89.4 486.1,87.1 488.3,87.4 491.7,87.1Z M40.1,83.6 38.4,84 36.5,83.5 34.8,82.7 37.6,82.3 39.8,82.5 40.1,83.6Z M279.8,77.3 278.7,78.8 277.5,78.6 276.8,77.7 276.9,77.5 278,76.7 279.1,76.8 279.8,77.3Z M272.5,75.8 269.3,77.3 267.3,77.3 266.7,76.5 268.7,75.2 272.6,75.3 272.5,75.8Z M23,72.8 24.7,73.4 26.4,73.1 28.7,73.8 31.4,74.2 31.2,74.5 29.1,75.1 27,74.5 25.9,74 23.5,74.1 22.8,73.9 23,72.8Z M263.4,67.6 264,68.8 265.4,68.4 267,69.1 270,70.1 273.2,71 273.5,72.3 275.5,72.1 277.5,73 275,73.9 270.7,73.2 269.1,71.9 266.4,73.4 262.4,74.9 261.5,73.2 257.7,73.5 260.1,72.1 260.5,69.9 261.4,67.4 263.4,67.6Z M459.7,65.4 459.1,67.2 462.2,69.1 458.6,71.2 450.6,73.1 448.2,73.6 444.5,73.2 436.8,72.3 439.5,71.1 433.5,69.7 438.4,69.2 438.3,68.4 432.4,67.7 434.3,65.9 438.5,65.5 442.8,67.4 447.1,65.9 450.6,66.7 455.1,65.2 459.7,65.4Z M289.3,63.5 286.1,63.6 285.5,62.3 286.6,60.7 289.2,60.3 291.3,61.1 291.4,62.3 291.1,62.7 289.3,63.5Z M13.8,65 15.7,65.7 15.1,63.7 22.6,64.1 28.1,66.7 25.3,67.9 20.7,68.2 20.7,70.9 19.6,71.5 17,71.4 14.9,70.5 11.2,69.7 10.5,68.5 7.7,68 4.6,68.4 3,67.4 3.6,66.4 0.3,67 1.6,68.3 0,69.5 0,58.4 6.8,60.6 14.1,63.3 13.8,65Z M234.3,58 232.6,59 228.8,58.2 226.6,58.5 222.8,57.2 225.2,56.4 227.2,55.2 230.1,55.9 231.8,56.4 232.6,57 234.3,58Z M1000,53.2 997,53.4 996.5,52.5 1000,51.3 1000,53.2Z M3.6,53.1 0,53.2 0,51.3 0.4,51.2 2.7,51.2 6.7,52 6.5,52.4 3.6,53.1Z M248.5,57 248.5,59.8 252.2,57.6 255.5,59.4 254.7,61.5 257.4,63.3 260.3,61.3 262.3,58.9 262.4,55.9 266.4,56.1 270.5,56.5 274.2,57.9 274.4,59.3 272.3,60.7 274.3,62.2 273.9,63.6 268.5,65.5 264.6,66 261.8,65.1 260.9,66.5 258.2,68.9 257.4,70.1 254.2,71.9 250.2,72.1 248,73.3 247.9,75.1 244.6,75.5 241.2,77.7 238.2,80.8 237.1,83 237,86.3 241.1,86.7 242.3,89.3 243.6,91.4 247.5,90.9 252.7,92.1 255.4,93.1 257.4,94.4 260.9,95.2 263.9,96.4 268.4,96.5 271.5,96.8 271,99.2 271.9,102 273.9,105.1 278,107.8 280.2,106.9 281.7,104 280.2,99.6 278.3,98.1 282.7,96.8 285.8,94.9 287.4,93 287.2,91.1 285.3,88.7 281.9,86.7 285.2,83.7 284,81.2 283,76.9 285,76.2 289.7,77 292.6,77.3 294.9,76.5 297.5,77.5 300.9,79.1 301.7,80.2 306.7,80.4 306.6,82.7 307.5,86.2 310.1,86.7 312.1,88.3 316.1,86.8 318.8,83.7 320.6,82.4 322.8,84.9 326.4,88.4 329.5,91.8 328.3,93.5 332,95.1 334.5,96.7 339,97.4 340.7,98.3 341.8,100.6 344,101 345.1,102 345.3,105.1 343.3,106.2 341.3,107.2 336.7,108.2 333.2,110.4 328.5,110.9 322.6,110.3 318.4,110.3 315.6,110.5 313.2,112.5 309.7,113.7 305.7,117.4 302.5,119.9 304.8,119.5 309.3,115.8 315.1,113.5 319.3,113.2 321.7,114.6 319.1,116.5 320,119.5 320.9,121.6 324.5,122.9 329.1,122.5 331.9,119.4 332.1,121.4 333.9,122.4 330.4,124.3 324.3,125.9 321.5,127 318.4,129 316.3,128.8 316.2,126.5 321,124.2 316.6,124.3 313.5,124.6 314,125.5 311,126.9 308.2,127.8 305.2,128.7 303.6,130.5 303.3,130.9 303.3,132.4 304.2,133.9 305.3,133.9 305,132.9 305.9,133.5 305.7,134.3 303.8,134.8 302.4,134.7 300.4,135.2 299.2,135.4 297.6,135.5 295.2,136.3 299.3,135.8 300.2,136.3 296.3,137.1 294.5,137.1 294.6,136.8 293.7,137.6 294.5,137.7 293.9,139.7 291.9,141.8 291.7,141.1 291.1,141 290.2,140.3 290.8,141.8 291.4,142.3 291.5,143.3 290.6,144.4 289.1,146.6 288.8,146.5 289.7,144.6 288.2,143.6 287.9,141.2 287.4,142.5 288,144.2 286.2,143.8 288.1,144.7 288.2,147.3 289,147.5 289.3,148.5 289.6,151.2 287.9,153.3 285,154.1 283.2,155.8 281.8,155.9 280.4,157 280,157.9 276.9,159.7 275.4,161 274.1,162.7 273.6,164.6 274.1,166.6 275.1,168.9 276.3,170.9 276.3,172.1 277.6,175.3 277.5,177.2 277.4,178.3 276.7,180 275.9,180.3 274.5,180 274.1,178.8 273,178.1 271.6,175.7 270.3,173.6 269.8,172.5 270.4,170.7 269.6,169.2 267.5,166.8 266.4,166.4 263.6,167.7 263.1,167.5 261.7,166.2 260,165.6 256.9,165.9 254.4,165.6 252.3,165.8 251.1,166.2 251.6,167 251.6,168.1 252.2,168.6 251.6,169 250.6,168.6 249.6,169.1 247.6,169 245.5,167.6 243.1,167.9 241,167.3 239.3,167.5 237,168.1 234.4,170.2 231.7,171.4 230.2,172.7 229.5,173.9 229.5,175.9 229.6,177.2 230.2,178.1 230.2,178.1 230.2,178.2 229.1,180.6 228.6,182.6 228.4,186.3 228.1,187.7 228.6,189.2 229.5,190.5 230,192.7 231.9,194.7 232.5,196.3 233.6,197.7 236.6,198.4 237.7,199.6 240.1,198.8 242.3,198.5 244.3,198 246.1,197.6 247.9,196.4 248.5,194.8 248.7,192.5 249.2,191.7 251.1,190.9 254,190.3 256.5,190.4 258.2,190.2 258.9,190.7 258.8,192.1 257.3,193.7 256.6,195.4 257.1,195.9 256.7,197.1 256,199.3 255.3,198.6 254.7,198.6 254.7,199 255.3,199 255.2,199.8 254.8,201 255,201.4 254.7,202.4 254.9,202.7 254.6,204.1 254,204.8 253.5,204.9 253,205.9 253.9,206.4 254.1,206 254.9,206.3 255.2,206.4 255.8,205.9 256.6,205.9 256.9,206.1 257.3,206 258.6,206.2 259.9,206.2 260.8,205.9 261.1,205.5 262,205.7 262.7,205.9 263.4,205.8 263.9,205.6 265.2,206 265.6,206 266.5,206.5 267.3,207.2 268.3,207.6 269,208.3 268.8,208.6 268.7,209.2 268.9,210.2 268.3,211.2 268,212.3 267.9,213.5 268.1,214.3 268.1,215.5 267.7,215.8 267.4,217 267.6,217.7 267.1,218.4 267.2,219.2 267.6,219.6 268.3,221.1 269.4,222.2 270.7,223.4 271.7,224.4 271.6,225 272.8,225.1 273,224.9 273.8,225.6 275.1,225.4 276.3,224.7 278,224.1 279,223.3 280.5,223.5 280.4,223.7 281.9,223.8 283.2,224.3 284.1,225.1 285.1,225.9 286.6,226 288.6,224.1 289.8,223.8 289.8,222.8 290.3,220.5 291.9,219.2 293.7,219.2 293.9,218.6 296.1,218.8 298.3,217.4 299.3,216.8 300.7,215.5 301.7,215.6 302.4,216.4 301.9,217.3 301.8,217.9 300.1,218.3 301.1,219.5 301,221 299.8,222.6 300.8,224.8 302,224.6 302.7,222.6 301.8,221.6 301.7,219.5 305.1,218.4 304.7,217.1 305.7,216.2 306.7,218.2 308.7,218.2 310.5,219.8 310.6,220.7 313.1,220.7 316,220.4 317.6,221.7 319.7,222 321.3,221.1 321.3,220.4 324.8,220.3 328.1,220.2 325.7,221.1 326.7,222.4 328.9,222.6 331,223.9 331.5,226.2 332.9,226.1 334,226.8 335.8,227.8 337.5,229.6 337.6,231 338.7,231.1 340.2,232.4 341.3,233.4 344.6,234 344.9,233.5 347.1,233.3 350.1,234 351.1,234.3 353.1,235 356,237.3 356.5,238.5 357.5,238.3 358.1,239.9 359.7,244.7 361.2,245.2 361.3,247.1 359.2,249.4 360,250.2 364.9,250.7 365,253.4 367.2,251.6 370.6,252.6 375.3,254.3 376.6,255.9 376.2,257.5 379.4,256.6 384.8,258.1 388.9,258 393.1,260.3 396.6,263.4 398.7,264.2 401.1,264.3 402.1,265.2 403.1,268.7 403.5,270.4 402.4,275 401,276.8 397.1,280.7 395.3,283.8 393.3,286.2 392.6,286.3 391.8,288.3 392,293.5 391.2,297.8 390.9,299.6 390,300.7 389.6,304.4 386.7,308.1 386.3,310.9 384,312.1 383.4,313.8 380.3,313.8 376,314.9 374,316.1 370.9,316.9 367.6,319.1 365.3,321.9 364.9,324 365.3,325.5 364.8,328.3 364.2,329.7 362.3,331.2 359.2,336.1 356.7,338.3 354.8,339.6 353.6,342.2 351.7,343.8 350.5,345.5 347.4,347.1 345.3,346.5 343.8,346.8 341.3,345.6 339.4,345.7 337.7,344.2 337.5,345.6 341,348 340.7,349.9 342.4,351.1 342.3,352.5 339.6,356.1 335.5,357.6 329.9,358.1 326.8,357.9 327.4,359.5 326.9,361.6 327.4,363 325.7,364 322.9,364.4 320.2,363.3 319.1,364.1 319.5,366.8 321.4,367.7 322.9,366.8 323.7,368.2 321.2,369.1 318.9,370.8 318.5,373.6 317.9,375.1 315.3,375.1 313.1,376.5 312.3,378.6 315,380.6 317.7,381.2 316.7,383.7 313.4,385.3 311.6,388.5 309.1,389.6 307.9,390.9 308.8,393.8 310.7,395.4 309.5,395.3 307.1,395.3 305.7,395.9 303.2,396.9 302.8,399.5 301.6,399.6 298.5,398.7 295.3,396.8 291.8,395.2 290.9,393.4 291.7,391.8 290.3,389.9 290,385.2 291.2,382.5 294.1,380.4 289.9,379.6 292.5,377.1 293.5,372.5 296.6,373.5 298,367.7 296.1,367 295.3,370.5 293.5,370.1 294.4,366.1 295.3,361 296.6,359.1 295.8,356.3 295.6,353.2 296.8,353.1 298.5,348.6 300.4,344.2 301.6,340.1 300.9,335.9 301.8,333.6 301.4,330.2 303,326.8 303.5,321.4 304.4,315.6 305.3,309.4 305.1,304.9 304.5,301 301.7,299.4 301.5,298.2 296,295.4 291,292.4 288.9,290.7 287.7,288.4 288.2,287.6 285.8,284 283.1,278.8 280.5,273.3 279.3,272 278.4,270 276.3,268.2 274.3,267 275.2,265.8 273.9,263.2 274.7,261.2 276.9,259.5 278.4,257.4 277.8,256.2 276.8,257.5 275.1,256.2 275.7,255.5 275.2,252.9 276.2,252.5 276.7,250.8 277.7,249 277.5,247.9 279,247.3 281,246.2 280.6,245.3 281.6,245.1 281.5,243.7 282.1,242.7 283.5,242.5 284.7,240.8 285.8,239.3 284.7,238.6 285.3,237 284.6,234.5 285.2,233.8 284.8,231.4 283.7,229.9 282.7,229.1 282.1,227.6 282.8,226.9 282.1,226.7 281.6,225.8 280.2,225 279,225.2 278.4,226.2 277.3,226.9 276.7,226.9 276.4,227.5 277.8,229 277,229.4 276.6,229.8 275.3,229.9 274.8,228.3 274.5,228.8 273.6,228.6 273,227.5 271.9,227.3 271.1,227 269.9,227 269.9,227.6 269.5,227.2 268,226.5 267.5,226 267.8,225.5 267.7,224.9 266.9,224.2 265.8,223.6 264.9,223.3 264.7,222.5 264,222 264.1,222.8 263.6,223.5 262.9,222.7 262.1,222.4 261.7,221.8 261.7,221 262.1,220.1 261.3,219.7 261.9,219.2 260.9,218.3 259.7,217.2 259,216.3 257.9,215.4 256.5,214.1 256.8,213.7 257.2,214.1 257.5,213.9 257,213.1 256.1,212.8 255.8,213.5 254.2,213.4 253.2,213.2 252.1,212.6 250.5,212.4 249.7,211.8 248.3,211.4 246.6,211.3 245.3,210.8 243.8,209.6 240.7,206.6 239.2,205.7 237,205 235.4,205.2 233.2,206.2 231.8,206.5 229.8,205.8 227.7,205.3 225.1,204 223.1,203.6 219.9,202.3 217.6,201 216.9,200.2 215.3,200.1 212.5,199.2 211.3,197.9 208.4,196.3 207,194.6 206.3,193.2 207.2,193 206.9,192.2 207.6,191.5 207.6,190.5 206.7,189.2 206.4,188.1 205.5,186.7 203,184 200.2,181.8 198.9,180.1 196.5,178.9 196,178.3 196.4,176.5 195,175.9 193.4,174.5 192.7,172.6 191.2,172.4 189.6,170.9 188.3,169.6 188.1,168.7 186.6,166.6 185.7,164.5 185.7,163.4 183.7,162.3 182.8,162.4 181.2,161.7 180.7,162.8 181.2,164.1 181.5,166.2 182.4,167.4 184.5,169.3 184.9,169.9 185.4,170.1 185.7,171.1 186.2,171 186.8,172.8 187.6,173.5 188.2,174.5 190,175.9 190.9,178.5 191.7,179.7 192.5,181 192.6,182.5 194,182.6 195.1,183.9 196.1,185.1 196,185.6 194.8,186.6 194.4,186.6 193.6,184.9 191.8,183.3 189.8,182 188.4,181.3 188.5,179.2 188.1,177.7 186.7,176.9 184.8,175.6 184.5,176 183.8,175.3 182,174.6 180.4,173 180.6,172.8 181.7,172.9 182.8,171.9 182.9,170.6 180.7,168.7 179.1,167.9 178.1,166.2 177.1,164.3 175.8,162.1 174.6,159.6 174.2,158.2 172.4,156.6 171.1,156.3 170.8,155.5 169.2,155.3 168.2,154.6 165.6,154.3 164.9,153.9 164.6,152.3 161.9,149.6 159.6,145.7 159.7,145 158.5,144.1 156.3,141.8 155.9,139.5 154.4,138 155.1,135.7 155,133.3 154.1,131.2 155.2,128.6 155.8,123.5 155.3,119.8 154.5,117.4 153.6,116.2 154,115.6 158,116.6 159.5,119.2 160.2,118.4 159.7,116.2 158.8,113.9 158.4,113.9 153,111.2 151,110 146,108.8 144.5,106.3 144.9,104.6 141.3,103.5 140.8,101.2 137.5,99.2 137.4,97.8 135.9,96.7 133.4,95.8 132.6,93.4 129.1,91.2 127.6,88.5 124.9,88.4 120.5,88.3 117.2,87.5 111.5,84.6 108.8,84.1 104,83.1 100.1,83.3 94.7,82.1 91.3,80.9 88.3,81.5 88.8,83.4 87.3,83.6 84.1,84.2 81.6,85.1 78.6,85.7 78.2,84 79.4,81.3 82.4,80.5 81.6,79.8 78.1,81.3 76.2,83.2 72.2,85.1 74.2,86.5 71.6,88.5 68.6,89.6 65.8,90.5 65.1,91.7 60.8,93.2 59.9,94.5 56.7,95.6 54.8,95.4 52.2,96.2 49.3,97.2 47,98.1 42.3,98.9 41.8,98.4 44.9,97.1 47.6,96.3 50.5,94.7 54,94.4 55.4,93.3 59.2,91.6 59.8,91.1 61.9,90.1 62.4,88 63.8,86.3 60.6,87.2 59.7,86.7 58.2,87.7 56.4,86.3 55.6,87.3 54.6,85.9 51.8,87 50.1,87 49.8,85.4 50.3,84.4 48.6,83.4 44.9,83.9 42.6,82.6 40.7,81.9 40.7,80.4 38.6,79.2 39.6,77.6 41.9,76 42.9,74.6 45.1,74.4 47,74.8 49.3,73.5 51.3,73.7 53.4,72.9 52.9,71.6 51.3,71.1 53.4,70 51.7,70.1 48.7,70.7 47.9,71.3 45.7,70.7 41.8,71 37.7,70.3 36.5,69.2 33,67.6 36.9,66.4 43.1,65.1 45.4,65.1 45,66.5 50.9,66.3 48.6,64.6 45.2,63.6 43.2,62.2 40.6,61 36.8,60.1 38.3,58.7 43.2,58.6 46.8,57.3 47.4,55.9 50.3,54.6 53,54.3 58.2,53.1 60.8,53.3 65.1,51.8 69.3,52.4 71.3,53.6 72.5,53.1 77.2,53.2 77,53.9 81.3,54.4 84.1,54.1 90,55 95.3,55.2 97.4,55.6 101.1,55.1 105.4,56 108.4,56.4 113.6,57 117.9,58.4 120.8,58.6 123.3,57.5 126.6,56.6 130.8,56.9 134.9,55.7 139.5,55 141.4,56.2 143.4,55.5 144.1,54.2 146,54.5 150.7,57 154.4,55.1 154.8,57.2 158.2,56.8 159.2,56 162.6,56.1 166.8,57.3 173.3,58.3 177.1,58.8 179.9,58.6 183.6,60 179.7,61.4 184.7,62 192.2,61.6 194.6,61.2 197.6,62.8 200.6,61.4 197.7,60.2 199.5,59.3 202.9,59.2 205.1,58.9 207.4,59.6 210.2,61.1 213.3,60.8 218.2,62.1 222.5,61.7 226.5,61.7 226.2,60 228.7,59.5 233,60.4 233,63.1 234.8,60.9 237,60.9 238.2,58.1 235.3,56.4 232,55.3 232.2,52.2 235.5,50.2 239.2,50.7 242,51.9 245.8,55 243.3,56.4 248.5,57Z M182.9,46.9 181.5,48.2 187.7,47.3 191.5,48.7 194.7,47.3 197.2,48.2 199.5,51 200.9,49.8 198.9,47 201.3,46.6 204.1,47 207.2,48.1 209,50.8 209.8,52.8 214.5,54.2 219.5,55.5 219.2,56.7 214.6,56.9 216.4,58 215.5,59 210.4,58.6 205.7,57.8 202.4,58 197.2,58.9 189,59.4 185.2,59.6 183.7,58.3 179.9,57.6 177.5,57.9 174.1,55.7 175.9,55.4 180.2,54.9 184.1,55 187.7,54.5 182.4,53.9 176.4,54.1 172.5,54.1 171,53 177.5,51.9 173.2,52 168.3,51.2 170.7,49.1 172.6,48 180,46.3 182.9,46.9Z M209.7,46.1 207.3,47.9 202.9,45.9 203.9,45.6 207.6,45.4 209.7,46.1Z M287.9,46.9 288.2,47.7 285.2,47.6 282.2,47.6 279.2,47.9 278.4,47.8 275.3,46.3 275.5,45.3 276.8,45.1 283.2,45.4 287.9,46.9Z M259.5,46.8 261.7,48.5 264.3,46.3 271.3,45.1 276.1,48 275.7,49.8 281.2,49 283.8,47.9 290,49.3 293.8,50.6 294.2,51.9 299.3,51.2 302.2,53 308.9,54.1 311.3,55.2 314,57.8 308.9,59.1 315.4,60.9 319.8,61.5 323.8,64.1 328.2,64.3 327.3,66.2 322.4,69.4 319,68.3 314.7,65.6 311.1,65.9 310.7,67.5 313.6,69.1 317.4,70.4 318.6,71.2 320.4,73.9 319.4,75.9 315.9,75.2 308.9,72.9 312.9,75.3 315.8,77 316.2,78 308.7,76.9 302.7,75.2 299.3,73.9 300.3,73.1 296.2,71.7 292.1,70.3 292.2,71.1 284.1,71.6 281.8,70.6 283.6,68.6 288.8,68.5 294.6,68.2 293.6,67.2 294.6,65.8 298.2,63.1 297.4,61.9 296.4,60.9 292.1,59.6 286.5,58.6 288.3,57.9 285.3,56.2 282.9,56 280.7,55.1 279.2,55.9 274.2,56.3 264,55.6 258.2,54.8 253.7,54.4 251.4,53.4 254.3,52.2 250.3,52.2 249.4,49.3 251.6,46.9 254.4,45.7 261.6,45 259.5,46.8Z M221.2,44.9 224.5,45.5 229.5,45.1 230.2,45.9 227.6,47.2 231.8,48.4 231.3,50.9 226.8,52 224.1,51.8 222.2,50.7 215.3,48.6 215.3,47.7 221,48 217.9,46.2 221.2,44.9Z M898.9,46.6 894.7,46.7 889,46.3 888.5,46.2 891.1,45.1 894.6,44.8 898.6,45.9 898.9,46.6Z M241.1,47.9 238.1,49.9 235,49.8 233.2,47.4 233.3,46 234.7,44.8 237.5,44.1 243.3,44.2 248.6,44.8 244.4,47.3 241.1,47.9Z M165.4,51.7 158.1,53.1 156.6,51.8 150.2,50.4 151.1,49.5 153.3,47.2 155.7,45.3 153,43.6 162.4,43.2 166.4,43.8 173.5,43.9 176.2,44.7 179.1,45.9 175.6,46.6 168.8,48.6 165.4,50.5 165.4,51.7Z M918.7,41.4 915.5,42.5 911,42.3 905.9,41.2 906.6,40.3 911.7,40.7 918.7,41.4Z M240,41.7 238.5,42.8 234.4,42.6 231.1,41.9 232.5,40.6 236.5,39.9 239,40.8 240,41.7Z M903,40.1 900.8,42.2 890.6,42.1 886,42.7 880.5,40.9 882,39 885.6,38.5 893,38.6 903,40.1Z M226.4,36.9 228.5,38.2 228.6,39.6 227.3,41.7 222.8,42 219.8,41.5 219.8,39.9 215.3,40.1 215.1,38 218.1,38 222.3,37.1 226.2,37.3 226.4,36.9Z M199.4,38.3 200.5,39.3 203,38.9 205.9,39 206.4,40.3 204.7,41.7 195.3,42.1 188.3,43.3 184,43.3 183.7,42.4 189.5,41.2 176.9,41.5 173,41 176.8,38.3 179.4,37.6 187.2,38.5 192.2,40.1 197,40.4 193.1,37.7 195.6,36.7 198.5,37 199.4,38.3Z M659.8,53.6 658.2,53.8 649.1,53.4 648.4,52.2 643.3,51.5 642.9,50 645.8,49.4 645.7,47.8 651.2,45.5 648.6,45.1 655.3,42.7 654.5,41.4 660.7,40 669.9,38.2 679.2,37.7 683.9,36.6 689.3,36.3 691.3,37.4 689.4,38.2 679.5,39.6 671.1,40.9 662.4,43.6 658.3,46.3 653.9,49 654.5,51.3 659.8,53.6Z M237,35.8 240.1,36.7 245.5,36.7 247.9,37.6 247.3,38.7 250.5,39.3 252.3,40 256,40.1 260.1,40.3 264.5,39.7 270.1,39.5 274.6,39.7 277.6,40.7 278.2,41.9 276.5,42.6 272.4,43.2 268.8,42.9 260.8,43.3 255.1,43.4 250.7,43 243.3,42.1 242.3,40.6 242,39.2 239.2,38 233.4,37.7 230.2,36.8 231.3,35.7 237,35.8Z M177.2,34.3 176.8,36.5 174.7,37.4 172.1,37.6 166.9,38.7 162.5,39.2 158.7,38.6 158.7,38.6 163.5,36.5 169.2,34.7 173.4,34.7 177.2,34.3Z M797.1,36.2 797.9,37.6 800.4,36.9 808.5,36.9 814.8,38.3 817,39.3 816.3,40.8 813.3,41.6 806,43.1 803.9,43.9 807.3,44.3 811.4,45 813.9,44.5 815.4,46.3 816.6,45.6 821,45.1 829.9,45.6 830.6,46.9 842.2,47.3 842.4,45.2 848.3,45.7 852.7,45.7 857.2,47.1 858.5,48.9 856.8,50.1 860.3,52.2 864.7,53.4 867.4,50.5 871.8,51.7 876.6,51 881.9,51.8 884,51 888.5,51.4 886.5,48.8 890.2,47.6 915.3,49.4 917.6,51.1 924.9,53.2 936.1,52.7 941.7,53.1 944,54.3 943.6,56.3 947.1,57.1 950.8,56.5 955.7,56.5 960.9,57 966.2,56.7 971,59.2 974.5,58.3 972.2,56.5 973.5,55.3 982.3,56.1 988.1,55.9 996.1,57.2 1000,58.4 1000,69.5 1000,69.5 996.4,70.7 992.8,70.5 995.3,72 997,74.3 998.3,75 998.6,76.2 997.9,76.9 992.7,76.3 984.9,78.4 982.4,78.7 978.2,80.7 974.2,82.4 973.1,83.7 969.2,81.7 961.9,83.9 960.7,82.9 958,84.1 954.3,83.7 953.4,85.5 950,88.2 950.1,89.3 953.3,90 952.9,94 950.4,94.1 949.2,96.4 950.3,97.6 945.5,99 944.5,102.2 940.4,102.9 939.5,105.7 935.5,108.3 934.5,106.4 933.3,102.3 931.8,96.2 933.1,92.3 935.4,90.7 935.6,89.4 939.9,88.7 944.9,85.2 949.6,82.4 954.6,80.2 956.9,76.2 953.5,76.5 951.8,78.8 944.8,81.8 942.5,78.4 935.3,79.3 928.4,84 930.7,85.7 924.5,86.4 920.2,86.7 920.4,84.7 916.1,84.3 912.6,85.7 904.1,85.2 895,86 886,91.4 875.4,98 879.7,98.3 881.1,100.1 883.8,100.7 885.6,99.3 888.6,99.5 892.6,102.5 892.7,104.9 890.5,107.7 890.3,111 889.1,115.4 884.9,119.4 883.9,121.4 880.2,124.6 876.4,127.8 874.6,129.4 870.9,131.1 869.2,131.1 867.4,129.8 863.7,131.8 863.3,132.7 862.2,132.6 861,133.5 860.2,134.4 860.3,136.4 858.9,137.1 858.4,137.5 857.3,138.4 855.5,138.8 854.3,139.6 854.2,140.8 853.8,141.1 855,141.5 856.5,142.7 858.9,146 859.6,147.8 859.6,151 858.6,152.5 856.1,153.1 853.9,154.2 851.3,154.5 851,153 851.6,150.9 850.3,148 852.4,147.5 850.5,145.1 849.1,144.6 848.8,145.1 848,145.4 847.9,144.8 847.2,144.6 846.4,144.1 847.2,142.9 847.8,142.6 847.6,142.1 848.3,140.6 848.1,140.1 846.5,139.8 845.2,139.1 841.3,139.9 839.3,141.2 836.3,142 837.7,140.7 837.2,139.6 839.4,137.7 837.9,136.3 835.5,137.2 832.3,139.2 830.6,141 827.9,141.1 826.5,142.4 827.9,144.3 830.2,144.7 830.3,146 832.5,146.8 835.6,144.8 838.1,145.9 839.9,146 840.3,147.4 836.4,148.2 835.1,149.7 832.4,151.1 831,153 834,154.6 835.1,157.3 836.7,159.8 838.6,162 838.6,164 836.8,164.8 837.5,166.3 839.1,167.1 838.7,169.4 838,171.6 836.5,171.8 834.4,174.9 832.2,178.5 829.6,181.8 825.8,184.4 821.9,186.7 818.8,187 817.1,188.3 816.1,187.4 814.6,188.7 810.7,190.1 807.7,190.6 806.8,193.5 805.2,193.7 804.5,191.6 805.2,190.6 801.5,189.7 800.1,190.1 796.4,192.5 794.1,195.1 793.5,197.1 795.6,200 798.2,203.6 800.7,205.3 802.4,207.6 803.7,212.7 803.3,217.6 801,219.4 797.8,221.2 795.6,223.5 792.1,226.1 791.1,224.3 791.9,222.4 789.8,220.9 787.5,220.5 786.4,219 785,216.1 782.5,214.9 780.1,214.9 780.5,212.7 778,212.8 777.8,215.8 776.3,219.9 775.4,222.3 775.6,224.3 777.4,224.4 778.6,227 779.1,229.4 780.6,231 782.3,231.3 783.7,232.7 784.4,233 786,234.7 787.2,236.5 787.3,238.4 787,239.6 787.3,240.6 787.5,242.2 788.5,243 789.6,245.5 789.5,246.4 787.6,246.6 784.9,244.5 781.6,242.3 781.3,240.9 779.7,239.1 779.3,236.8 778.3,235.2 778.6,233.2 778,232 776.9,231 776.4,229.6 775,228 773.6,226.7 773.2,228.3 772.6,226.8 772.9,225.1 773.8,222.4 773.5,220.3 774.3,218.2 773.4,216.6 773.6,213.5 772.5,212.1 771.6,208.8 771.1,205.3 769.9,203 768.1,204.4 764.9,206.3 763.4,206.1 761.6,205.4 762.6,202 762,199.4 759.8,196.2 760.2,195.2 758.6,194.8 756.6,192.6 755.8,191.1 755.6,189.7 755.1,188.4 753.9,186.8 751.4,186.7 751.6,187.8 750.8,189.3 749.6,188.8 749.2,189.3 748.4,189 747.3,188.7 746.9,189.7 745,189.7 741.6,190.3 741.8,192.4 740.3,194 736.3,195.9 733.2,199.2 731.1,200.9 728.3,202.7 728.3,204 726.9,204.7 724.4,205.7 723.1,205.8 722.3,208 722.9,211.6 723,213.9 721.8,216.5 721.8,221.2 720.4,221.4 719.1,223.5 720,224.4 717.4,225.2 716.5,227.1 715.4,227.9 712.8,225.3 711.5,221.4 710.4,218.6 709.4,217.3 708,214.6 707.3,211.1 706.8,209.4 704.3,205.6 703.1,200.2 702.3,196.6 702.3,193.3 701.8,190.7 697.7,192.3 695.8,192 692.1,188.6 693.5,187.6 692.6,186.5 689.4,184.2 687.3,183.5 686.5,181.5 684.4,179.4 679.3,179.9 674.7,179.9 670.8,180.3 665.6,179.5 662.6,178.9 659.4,178.5 658.3,175.1 656.9,174.6 654.8,175.1 652,176.4 648.6,175.5 645.8,173.4 643.1,172.6 641.3,170 639.2,166.3 637.7,166.7 635.9,165.8 634.9,166.9 633.3,166.7 633.8,168 633.6,168.6 634.5,170.7 635.6,173.1 636.9,173.7 637.4,174.7 639.3,175.9 639.5,177 639.2,177.9 639.6,178.9 640.4,179.6 640.7,180.6 641.1,181.2 641,179.2 641.7,177.8 642.5,177.5 643.3,178.3 643.4,180 642.7,181.6 643.3,182.7 643.8,182.5 643.9,183.3 646,182.8 648.3,182.9 650,183 651.9,181.1 654,179.3 655.8,177.6 656.6,176.7 656.9,176.9 656.6,178.1 656.3,178.6 656.7,180.8 657.9,182.7 659.5,183.7 661.5,184 663.1,184.5 664.4,186.1 665.1,187.1 666.1,187.4 666.1,188 665.1,189.7 664.7,190.5 663.5,191.3 662.5,193.3 661.2,193.1 660.6,193.8 660.2,195.2 660.5,197 660.3,197.4 659,197.4 657.2,198.4 657,199.8 656.3,200.3 654.6,200.3 653.5,201 653.5,202.1 652.2,202.9 650.7,202.7 648.8,203.6 647.5,203.7 645.5,204.5 645,205.7 644.9,206.7 642.1,207.8 637.7,209.1 635.2,211.1 634,211.3 633.2,211.1 631.5,212.2 629.8,212.8 627.4,212.9 626.7,213.1 626.1,213.8 625.4,214 625,214.7 623.6,214.7 622.7,215 620.8,214.9 620.1,213.3 620.1,211.8 619.7,210.9 619.1,208.9 618.3,207.7 618.9,207.6 618.6,206.3 619,205.8 618.8,204.6 618.5,203.4 617.6,202.6 617.4,201.5 616,200.5 614.5,198.1 613.7,195.9 611.8,194 610.6,193.5 608.7,190.9 608.4,188.9 608.5,187.3 606.9,184.2 605.6,183.1 604.1,182.5 603.2,180.9 603.4,180.3 602.6,178.9 601.8,178.3 600.7,176.2 599,174 597.6,172 596.2,172.1 596.6,170.5 596.8,169.6 597.1,168.5 597,168.1 596.2,169.2 595.6,171.3 594.9,172.7 594.2,173.2 593.3,172.3 592,171.1 590.1,167.1 589.8,167.3 590.9,170.3 592.6,173.1 594.7,177.4 595.8,178.9 596.7,180.5 599.1,183.5 598.6,184 598.7,185.8 601.9,188.3 602.4,188.9 603.3,191.6 602.7,192.1 603.1,195 604.1,198.3 605.2,199 606.7,200 608.3,203.2 609.1,205.8 610.6,207.1 614.4,209.7 615.9,211.3 617.4,212.9 618.3,213.9 619.7,214.7 620.3,215.6 620.2,216.7 618.7,217.4 619.8,218.2 620.8,218.7 621.3,219.8 622.5,221 623.9,221 626.5,220.3 629.6,220 632,219.1 633.4,218.9 634.4,218.4 636,218.3 636.9,218.2 638.1,217.8 639.6,217.6 640.9,216.6 642,216.6 642,217.4 641.8,219 641.8,220.4 641.2,221.4 640.4,224.4 639.1,227.6 637.4,231.1 635,235.2 632.6,238.3 629.3,242.1 626.6,244.3 622.4,247.1 619.8,249.2 616.8,252.6 616.1,254 615.5,254.7 613.6,255.8 612.9,256.9 611.8,257.1 611.4,259.1 610.6,260.2 610,262.1 608.9,263 607.6,266.4 607.8,268 609.6,269 609.6,269.7 608.9,271.4 609,272.2 608.9,273.6 609.8,275.3 611,278.1 612,278.7 612.4,279.9 612.3,282.7 612.7,285.1 612.8,289.4 613.3,290.8 612.4,292.8 611.4,294.7 609.6,296.4 607.1,297.5 603.9,298.9 600.8,301.8 599.7,302.3 597.8,304.3 596.6,305 596.4,306.9 597.7,309 598.3,310.7 598.3,311.5 598.8,311.4 598.7,314.1 598.3,315.4 598.9,315.9 598.5,317 597.3,318 595,318.9 591.7,320.4 590.5,321.5 590.7,322.6 591.4,322.8 591.2,324.3 590.5,326.3 590.2,328.6 589.5,329.9 587.6,331.3 587,331.7 585.8,333.1 585.1,334.5 583.5,336.5 580.3,339.4 578.4,341 576.3,342.3 573.4,343.4 572,343.5 571.6,344.3 569.9,343.9 568.5,344.4 565.5,343.9 563.9,344.2 562.7,344.1 559.8,345.2 557.5,345.6 555.8,346.7 554.5,346.7 553.3,345.7 552.4,345.7 551.2,344.4 551,344.8 550.7,344.1 550.7,342.4 549.8,340.6 550.7,340.1 550.6,337.9 548.8,335.3 547.4,333 547.4,333 545.4,329.4 543.3,327.3 542.3,325.3 541.6,322.5 541,320.5 540,316.3 540,312.9 539.6,311.4 538.5,310.3 537.1,308 535.6,304.6 535,302.9 532.8,300.2 532.6,298.1 532.3,296.3 532.7,293.9 533.7,291.3 533.8,290.1 534.7,287.6 535.4,286.5 537,284.7 537.9,283.4 538.2,281.4 538,279.8 537.2,278.8 536.4,277.1 535.8,275.5 535.9,274.9 536.8,273.8 535.9,271.1 535.4,269.2 534,267.5 534.2,266.9 533.8,266.1 533.1,264 530.8,261.1 528,258.2 526.1,256 524.4,253.1 524.5,252.2 525.1,251.3 525.8,249.3 526.4,247.2 525.8,246.8 526.8,243.7 527.2,241.5 526.1,239.6 524.9,239.2 524.3,237.9 523.6,237.5 523.6,236.7 520.7,237.7 519.7,237.6 518.6,238.2 516.4,238.2 514.9,236.4 514,234.4 512,232.6 509.9,232.6 507.5,232.6 505.2,232.9 502.9,233.5 498.6,235.2 497,236.1 494.5,236.9 492.1,236.1 490.8,236.2 488.9,235.6 487.1,235.6 483.8,236.1 481.9,236.9 479.1,237.9 478.6,237.9 477.8,237.9 475,236.6 472.5,234.5 470.1,232.9 468.2,231.2 467.5,230.9 465.5,229.8 464,228.3 463.5,227.3 463.2,225.3 462,223.6 460.9,222.5 460.2,222.2 459.5,221.6 459.2,220.4 458.8,219.8 458,219.3 456.5,218.2 455.3,218 454.7,217.2 454.7,216.8 453.9,216.2 453.7,215.6 453.2,213.5 453.6,212.2 452.4,210.1 451,209.1 452.3,208.6 453.6,206.6 454.3,205.2 454,203.7 454.8,202.3 455.1,199.7 454.8,197 454.5,195.6 454.8,194.2 454.1,192.9 452.6,191.7 452.7,190.5 452.9,189.2 453.9,188.4 454.8,187 454.6,186.1 455.6,184.1 457.1,182.3 458.1,181.9 458.8,180.3 458.9,178.8 459.9,177.1 461.7,176.1 463.5,173.2 464.9,172.1 467.5,171.8 469.7,169.9 471.1,169.2 473.4,166.9 472.7,163.4 473.8,161 474.2,159.5 476,157.7 478.7,156.4 480.8,155.2 482.7,152.4 483.5,150.7 485.6,150.7 487.2,151.9 489.9,151.7 492.8,152.3 494,152.3 496.6,150.8 499.6,150.3 501.4,149.2 504.1,148.3 508.8,147.8 513.4,147.6 514.8,148 517.4,146.9 520.4,146.9 521.5,147.5 523.4,147.4 526.4,146.2 528.4,146.6 528.3,148 530.6,147 530.8,147.5 529.4,148.9 529.4,150.1 530.4,150.8 530,153.2 528.2,154.6 528.7,156.2 530.2,156.2 530.9,157.5 531.9,158 535.2,158.9 536.3,158.7 538.7,159.1 542.3,160.4 543.6,162.8 546.1,163.4 550.1,164.5 553,165.9 554.4,165.2 555.7,163.9 555.1,161.8 555.9,160.4 557.9,159.1 559.8,158.8 563.6,159.3 564.5,160.6 565.6,160.6 566.5,161.1 569.2,161.4 569.9,162.3 573.6,162.3 576.3,163 579,163.8 580.3,164.2 582.5,163.4 583.6,162.6 586,162.3 588,162.7 588.8,164.1 589.4,163.2 591.6,163.8 593.8,164 595.2,163.3 596,162.4 595.8,162.2 596.5,160.9 597.1,158.8 597.5,158.1 597.6,158.1 598.6,155.8 599.9,153.9 600,153.8 599.7,151.6 600.4,150.5 599.4,149.2 600.4,148.2 598.8,148.4 596.4,147.8 594.5,149.4 590.3,149.7 588.1,148.2 585.1,148.1 584.4,149.3 582.5,149.6 579.8,148.1 576.8,148.2 575.1,145.4 573.1,143.9 574.5,141.7 572.7,140.4 575.8,137.7 580.1,137.6 581.2,135.5 586.5,135.9 589.9,134.1 593.1,133.3 597.7,133.2 602.5,135.2 606.5,136.3 609.8,135.8 612.1,136.1 615.4,134.6 615.8,133.4 615.1,131.5 613.5,130.5 612,130.2 611,129.3 607.4,127 604.3,126 601.9,124.3 603.9,123.9 606.2,121.6 604.6,120.5 608.7,119.3 608.7,118.7 606.2,119.2 604,119.4 602.1,120.3 599.5,120.4 597.1,121.5 597.3,123.2 598.6,123.9 601.5,123.7 600.9,124.7 597.9,125.2 594.1,126.8 592.6,126.2 593.2,124.9 590.2,124.1 590.6,123.6 593.3,122.6 592.5,122 588.2,121.3 588,120.3 585.4,120.6 584.4,122.1 582.2,124.2 582.3,124.9 580.9,125.5 580.1,125.2 579.3,128.6 577.9,129.7 576.9,131.7 577.8,133.3 578.1,134.4 580.5,135.3 580,136 576.7,136.1 575.5,137 573.2,138.5 572.3,137.2 572.4,136.6 570.7,136.5 569.2,136.3 565.9,137 567.8,138.5 566.4,139 564.8,139 563.4,137.6 562.9,138.2 563.5,139.8 564.9,141.1 563.8,141.7 565.4,143 566.7,143.8 566.8,145.4 564.2,144.7 565,146.1 563.3,146.4 564.3,148.8 562.5,148.9 560.2,147.7 559.2,145.4 558.7,143.6 557.6,142.3 556.2,140.7 556,139.9 555.5,139.7 555.4,139.1 553.9,138.2 553.7,136.9 553.9,135 554.3,134.1 553.8,133.7 553.2,133.5 552.5,132.6 551.3,132 548.6,131 547,130 544.5,129.1 542.2,127.1 542.7,126.9 541.4,125.7 541.4,124.8 539.6,124.4 538.8,125.5 537.9,124.6 538,123.7 538.1,123.6 538.7,123.4 536.5,123 534.2,123.9 534.4,125.3 534.1,126.1 535,127.5 537.6,128.9 539,131.2 542.1,133.5 544.2,133.4 544.9,134.1 544.1,134.6 546.6,135.6 548.7,136.5 551,137.9 551.3,138.4 550.8,139.4 549.3,138.1 546.9,137.7 545.7,139.5 547.7,140.5 547.4,141.9 546.2,142.1 544.7,144.5 543.6,144.7 543.6,143.8 544.1,142.4 544.7,141.8 543.7,140.2 542.8,138.8 541.7,138.4 540.8,137.2 539.1,136.7 537.9,135.6 535.8,135.4 533.6,134.2 531.1,132.3 529.2,130.7 528.3,128 527,127.7 524.7,126.8 523.4,127.1 521.8,128.4 520.7,128.6 518.1,130.2 512.7,129.4 508.6,130.3 508.3,132 508.4,133.6 505.8,135.5 502.3,136.1 502,137 500.3,138.5 499.2,140.8 500.3,142.4 498.7,143.6 498.1,145.4 496,146 494,148.1 490.5,148.2 487.9,148.1 486.1,149.1 485.1,150.1 483.7,149.9 482.7,149 481.9,147.4 479.3,147 478.2,147.7 476.7,147.3 475.3,147.6 475.7,145.4 475.4,143.7 474.2,143.4 473.5,142.4 473.8,140.6 474.9,139.6 475.1,138.4 475.6,136.8 475.6,135.6 475,134.6 474.9,133.7 475,131.7 473.9,130.5 477.8,128.5 481.2,129 485,129 487.9,129.4 490.2,129.3 494.7,129.4 496.2,127.7 496.7,122.2 493.8,119.3 491.8,117.9 487.5,116.8 487.2,114.8 490.8,114.2 495.5,114.9 494.6,111.7 497.3,112.9 503.7,110.8 504.6,108.5 507,107.9 509.2,107.4 510.6,106.6 513.1,102.5 516.9,101.4 519.2,101.4 519.7,100.9 522,100.7 522.6,101.3 524.4,99.9 523.8,98.9 523.7,97.3 522.6,95.8 522.5,92.9 522.9,92.2 523.7,91.4 526.2,91.2 527.2,90.4 529.4,89.6 529.3,91.1 528.5,92 528.8,92.7 530.3,93.2 529.6,94.2 528.8,93.9 526.8,95.9 527.6,97.3 527.6,98.3 530.4,99 530.4,100 533.2,99.5 534.8,98.7 537.9,99.8 539.2,100.7 541.1,99.9 545.5,98.6 549,97.6 551.7,98.1 551.9,98.8 554.6,98.8 555.2,97.6 559.1,96.7 558.5,94.4 558.6,92.3 559.9,90.5 562.6,89.6 564.8,91.6 567,91.6 567.5,89.5 567.9,87.8 566.8,88.2 565.1,87.2 564.8,85.6 568.3,84.8 571.8,84.4 574.9,84.9 577.7,84.8 580.9,83.3 578,81.9 572.9,82.2 568,83.2 563.5,83.8 561.9,82.2 559.2,81.3 559.8,78.6 558.5,76.1 559.8,74.5 562.3,72.7 568.7,69.7 570.6,69.1 570.3,68 566.4,66.6 561.6,67.4 558.9,69.4 559.4,71.1 554.9,73.3 549.6,75.7 547.6,79.6 549.5,81.6 552.2,83.1 549.6,86.2 546.7,86.9 545.7,91.6 544.1,94.2 540.7,93.9 539.2,96.1 536,96.2 535.1,93.6 532.7,90.4 530.6,86.5 528.8,84.8 523.3,88 519.6,88.7 515.7,87.3 514.7,84.3 513.9,77.9 516.4,76.1 523.8,73.7 529.2,70.9 534.3,67 541,61.6 545.7,59.5 553.3,56.1 559.4,54.8 564,55 568.2,52.7 573.3,52.8 578.2,52.3 586.9,54.3 583.3,55 586.4,56.8 589.3,55.8 593.8,57.5 601.4,58.2 611.9,61.3 614.1,62.6 614.2,64.5 611.2,65.9 606.6,66.7 594.2,64.6 592.2,64.9 596.7,66.9 597.1,71.1 600.6,71.9 602.8,72.6 603.2,71.3 601.4,70.1 603.3,69 610,70.8 612.3,70.1 610.5,68.1 616.9,65.3 619.5,65.5 622.1,66.5 623.7,64.6 621.4,62.9 622.7,61.2 620.7,59.5 628.5,60.4 630.1,62 626.5,62.3 626.6,63.9 628.7,64.8 633,64.2 633.7,62.4 639.5,61.1 649.2,58.7 651.3,58.9 648.6,60.6 652,60.8 654,59.9 659.2,59.8 663.3,58.7 666.5,60.3 669.7,58.5 666.8,56.9 668.2,56 676.4,56.8 680.2,57.7 690.3,60.9 692.2,59.4 689.3,57.9 689.3,57.3 685.9,57.1 686.8,55.8 685.3,53.6 685.3,52.7 690.4,50.2 692.2,47.7 694.3,47.1 701.6,47.8 702.2,49.4 699.6,51.6 701.3,52.5 702.2,54.5 701.6,58.3 704.6,60 703.4,61.8 698,65.8 701.2,66.2 702.3,65.2 705.3,64.5 706.1,63.1 708.5,61.8 706.9,60.2 708.2,58.4 705.1,58.1 704.4,56.6 706.7,53.8 703.1,51.5 708,49.7 707.4,47.7 708.8,47.6 710.2,49.2 709.1,51.8 712.1,52.4 710.8,50.3 715.5,49.3 721.3,49.1 726.4,50.7 723.9,48.4 723.6,45.4 728.5,44.9 735.2,45 741.2,44.6 738.9,43.2 742.1,41.3 745.3,41.3 750.7,39.9 758.1,39.5 759,38.8 766.3,38.5 768.6,39.1 774.8,37.6 779.9,37.7 780.7,36.5 783.3,35.3 789.9,34.2 794.6,35.1 790.8,35.8 797.1,36.2Z M636.4,135.3 637.8,137.3 639.1,137.4 640,138.2 637.7,138.4 637.2,140.6 636.7,141.5 635.7,142.2 635.8,143.6 636.7,145.6 639.3,146.2 641.2,147.6 645.2,148.1 649.5,147.3 649.8,146.7 649.3,144.7 649.7,141.8 647.5,140.9 648.2,139 646.4,138.8 647,136.5 649.6,137.1 652,136.2 650,134.6 649.2,133 647,133.7 646.7,135.7 645.8,133.9 645.7,133.3 646.4,132.1 645.8,131.1 642.6,130.2 641.4,127.7 639.8,127 639.7,126.1 642.4,126.3 642.5,124.3 644.9,123.9 647.3,124.3 647.8,121.6 647.3,119.9 644.6,120 642.2,119.3 639,120.5 636.4,121.1 635.1,122.8 632.4,123.2 629.7,126.1 632.2,128.7 631.9,130.6 635,133.9 636.4,135.3Z M239.3,34.7 238.1,34.7 232.9,34.6 232.1,33.8 237.7,33.8 239.7,34.3 239.3,34.7Z M193.9,34.2 188.7,35 184.6,34.1 186.9,33.2 190.9,32.9 194.8,33.3 193.9,34.2Z M568.7,33.7 562.5,34.9 557.6,34.2 559.5,33.5 557.8,32.6 563.6,32.1 564.7,33.1 568.7,33.7Z M195.4,31.7 192,32.2 187.4,32.2 187.4,31.8 190.3,31 191.8,31.1 195.4,31.7Z M233.8,33.2 229.7,33.7 227.4,33.1 226.2,32.1 226,30.9 229.6,31 231.2,31.2 234.6,32.2 233.8,33.2Z M222.1,32.4 223.1,33.6 218.6,33.3 214,32.4 207.8,32.3 210.5,31.5 207.2,30.8 207,29.7 212.4,30.1 219.9,31.1 222.1,32.4Z M791.9,32.5 776.2,33.6 781.3,29.9 783.6,29.6 785.7,29.8 792.7,31.4 791.9,32.5Z M550.7,28.6 559.8,30.7 552.9,31.8 551.3,33.8 548.9,34.3 547.6,36.6 544.2,36.7 538.2,35.1 540.7,34.1 536.6,33.3 531.2,30.9 529,28.7 536.6,27.7 538.1,28.7 542.1,28.7 543.1,27.7 547.2,27.6 550.7,28.6Z M570.7,26.6 576.1,27.6 572,29.1 564,29.4 555.8,29 555.3,28.2 551.3,28.2 548.2,26.9 556.8,26.1 560.9,26.8 563.7,26 570.7,26.6Z M642,26.3 638.3,26.6 635.8,26.8 635.4,27.3 632.2,27.7 629.2,27.1 630.8,26.2 624.6,26.1 630,25.6 634.2,25.6 634.8,26.3 636.4,25.7 639,25.2 643.1,25.8 642,26.3Z M777.6,30.9 771.5,31.2 763.8,30.4 759.2,29.4 757.1,27.4 753.3,26.8 760.5,24.9 766.5,24.3 771.9,25.7 778.3,28.4 777.6,30.9Z M258.3,28.7 261.6,29.6 257.8,30.4 252.7,32.5 247.8,32.7 242,32.4 239,31.2 239.1,30.2 241.3,29.5 236.2,29.5 233.1,28.6 231.4,27.3 233.3,26.1 235.2,25.3 238.1,25.1 236.8,24.4 243.3,24.3 246.9,25.8 251.5,26.4 256.1,26.9 258.3,28.7Z M309.7,19.1 317.1,19.4 323.1,19.7 328.2,20.5 328.1,21.2 321.3,22.4 314.6,23 312.1,23.6 318.1,23.6 311.6,25.3 307,26.1 302.3,28.3 296.5,28.8 294.8,29.4 286.4,29.7 290.2,30 288.3,30.5 290.6,31.9 287.9,32.8 283.6,33.6 282.3,34.7 278.4,35.5 278.8,36.2 283.6,36 283.6,36.7 276.2,38.4 269,37.6 260.8,38.1 256.7,37.7 251.4,37.6 251.1,36.2 256.2,35.6 254.8,33.6 256.5,33.4 264,34.6 260.2,32.8 255.7,32.3 257.9,31.2 262.8,30.6 263.6,29.6 259.7,28.5 258.5,27.1 266.1,27.2 268.3,27.5 272.6,26.5 266.4,26.2 256.7,26.3 251.8,25.4 249.4,24.3 246.2,23.5 245.6,22.5 249.7,22 253,21.9 258.4,21.4 262.5,20.4 265.9,20.6 268.9,21.3 271.1,19.8 274.7,19.4 279.7,19.1 288.2,19 289.7,19.3 297.7,18.8 303.7,19 309.7,19.1Z M424.7,18 442.1,20.2 437,21.3 426.3,21.4 411.4,21.7 412.8,22.2 422.6,21.9 431,22.8 436.4,22 438.7,23 435.6,24.6 442.7,23.5 456.2,22.5 464.5,23 466.1,24.2 454.8,26.2 453.2,26.8 444.3,27.3 450.7,27.4 447.5,29.4 445.3,31.2 445.4,34.3 448.7,36.2 444.3,36.3 439.8,37.1 444.9,38.6 445.6,41 442.6,41.2 446.2,43.6 440,43.8 443.2,45 442.3,45.9 438.4,46.4 434.5,46.4 438,48.3 438.1,49.5 432.6,48.3 431.1,49.1 434.9,49.8 438.5,51.5 439.6,53.7 434.6,54.2 432.5,53.2 429,51.6 430,53.5 426.8,54.9 434.1,55 437.9,55.2 430.5,57.6 422.9,59.8 414.8,60.8 411.7,60.8 408.9,61.8 405,64.8 399,66.7 397.1,66.8 393.4,67.5 389.4,68.2 387,69.9 387,71.8 385.6,73.7 381.1,75.9 382.2,78.1 380.9,80.3 379.5,83.1 375.6,83.2 371.5,81 365.9,80.9 363.2,79.4 361.4,76.7 356.6,73.3 355.2,71.4 354.8,69 350.9,66.4 351.9,64.3 350.1,63.4 352.8,60.1 357,59.1 358.1,57.9 358.7,55.8 355.5,56.7 354,57.1 351.5,57.5 348.1,56.6 347.9,54.8 349,53.3 351.6,53.2 357.2,54 352.5,52.2 350,51.3 347.2,51.6 344.9,51 348,48.4 346.3,47.3 344.1,45.4 340.8,42.5 337.2,41.4 337.3,40.2 329.8,38.6 323.9,38.4 316.5,38.5 309.7,38.7 306.5,37.8 301.7,36.1 309,35.2 314.5,35.1 302.7,34.3 296.4,33.2 296.8,32.1 307.3,30.8 317.5,29.5 318.5,28.4 311,27.5 313.5,26.3 323.1,24.4 327.1,24.1 326,22.9 332.5,22.1 341.1,21.7 349.6,21.7 352.7,22.5 360,21 366.7,22 370.6,22.3 376.3,23.2 369.7,21.7 370.1,20.5 379.4,18.8 389.2,18.9 392.7,17.9 402.5,17.7 424.7,18Z" fill="#54736f" stroke="#78938c" stroke-width="0.65" fill-rule="evenodd"/>
</svg>
